HIERARCHY
ROOT Hips
{
    OFFSET   0.000000   0.000000   0.000000
    CHANNELS 6 Xposition Yposition Zposition Zrotation Xrotation Yrotation
    JOINT Chest
    {
        OFFSET   0.000000   8.007230   0.000000
        CHANNELS 3 Zrotation Xrotation Yrotation
        JOINT Chest2
        {
            OFFSET   0.000000  22.077100   0.000000
            CHANNELS 3 Zrotation Xrotation Yrotation
            JOINT Neck
            {
                OFFSET   0.000000  23.255100   0.000000
                CHANNELS 3 Zrotation Xrotation Yrotation
                JOINT Head
                {
                    OFFSET   0.000000  14.370100   1.956600
                    CHANNELS 3 Zrotation Xrotation Yrotation
                    End Site
                    {
                        OFFSET   0.000000  19.566000   0.000000
                    }
                }
            }
            JOINT LeftCollar
            {
                OFFSET   3.911900  19.017000  -0.467063
                CHANNELS 3 Zrotation Xrotation Yrotation
                JOINT LeftShoulder
                {
                    OFFSET  10.383700   0.000000   0.000000
                    CHANNELS 3 Zrotation Xrotation Yrotation
                    JOINT LeftElbow
                    {
                        OFFSET  26.662100   0.001193   0.000980
                        CHANNELS 3 Zrotation Xrotation Yrotation
                        JOINT LeftWrist
                        {
                            OFFSET  28.869000  -0.000059  -0.000082
                            CHANNELS 3 Zrotation Xrotation Yrotation
                            JOINT LeftFinger0
                            {
                                OFFSET   2.044650  -2.323450   3.252850
                                CHANNELS 3 Zrotation Xrotation Yrotation
                                JOINT LeftFinger01
                                {
                                    OFFSET   3.088130   0.000000   0.000000
                                    CHANNELS 3 Zrotation Xrotation Yrotation
                                    JOINT LeftFinger02
                                    {
                                        OFFSET   2.639460   0.000000   0.000000
                                        CHANNELS 3 Zrotation Xrotation Yrotation
                                        End Site
                                        {
                                            OFFSET   2.582190   0.000000   0.000000
                                        }
                                    }
                                }
                            }
                            JOINT LeftFinger1
                            {
                                OFFSET   8.364480   0.000000   3.252850
                                CHANNELS 3 Zrotation Xrotation Yrotation
                                JOINT LeftFinger11
                                {
                                    OFFSET   4.646930   0.000000   0.000000
                                    CHANNELS 3 Zrotation Xrotation Yrotation
                                    JOINT LeftFinger12
                                    {
                                        OFFSET   2.323470   0.000000   0.000000
                                        CHANNELS 3 Zrotation Xrotation Yrotation
                                        End Site
                                        {
                                            OFFSET   2.273050   0.000000   0.000000
                                        }
                                    }
                                }
                            }
                            JOINT LeftFinger2
                            {
                                OFFSET   8.364490   0.000016   1.078090
                                CHANNELS 3 Zrotation Xrotation Yrotation
                                JOINT LeftFinger21
                                {
                                    OFFSET   5.111610   0.000000   0.000000
                                    CHANNELS 3 Zrotation Xrotation Yrotation
                                    JOINT LeftFinger22
                                    {
                                        OFFSET   2.788150   0.000016   0.000000
                                        CHANNELS 3 Zrotation Xrotation Yrotation
                                        End Site
                                        {
                                            OFFSET   2.727660   0.000000   0.000000
                                        }
                                    }
                                }
                            }
                            JOINT LeftFinger3
                            {
                                OFFSET   7.899780   0.000015  -1.078090
                                CHANNELS 3 Zrotation Xrotation Yrotation
                                JOINT LeftFinger31
                                {
                                    OFFSET   4.646930   0.000000   0.000000
                                    CHANNELS 3 Zrotation Xrotation Yrotation
                                    JOINT LeftFinger32
                                    {
                                        OFFSET   2.323470   0.000000   0.000000
                                        CHANNELS 3 Zrotation Xrotation Yrotation
                                        End Site
                                        {
                                            OFFSET   2.273050   0.000000   0.000000
                                        }
                                    }
                                }
                            }
                            JOINT LeftFinger4
                            {
                                OFFSET   7.435090   0.000000  -3.252850
                                CHANNELS 3 Zrotation Xrotation Yrotation
                                JOINT LeftFinger41
                                {
                                    OFFSET   3.717550   0.000000   0.000000
                                    CHANNELS 3 Zrotation Xrotation Yrotation
                                    JOINT LeftFinger42
                                    {
                                        OFFSET   1.858770   0.000000   0.000000
                                        CHANNELS 3 Zrotation Xrotation Yrotation
                                        End Site
                                        {
                                            OFFSET   1.818440   0.000000   0.000000
                                        }
                                    }
                                }
                            }
                        }
                    }
                }
            }
            JOINT RightCollar
            {
                OFFSET  -3.911910  19.017000  -0.467062
                CHANNELS 3 Zrotation Xrotation Yrotation
                JOINT RightShoulder
                {
                    OFFSET -10.383700   0.000014   0.000000
                    CHANNELS 3 Zrotation Xrotation Yrotation
                    JOINT RightElbow
                    {
                        OFFSET -26.662100   0.001225   0.001091
                        CHANNELS 3 Zrotation Xrotation Yrotation
                        JOINT RightWrist
                        {
                            OFFSET -28.869000  -0.000020  -0.000085
                            CHANNELS 3 Zrotation Xrotation Yrotation
                            JOINT RightFinger0
                            {
                                OFFSET  -2.044650  -2.323490   3.252850
                                CHANNELS 3 Zrotation Xrotation Yrotation
                                JOINT RightFinger01
                                {
                                    OFFSET  -3.088130   0.000000   0.000000
                                    CHANNELS 3 Zrotation Xrotation Yrotation
                                    JOINT RightFinger02
                                    {
                                        OFFSET  -2.639460   0.000000   0.000000
                                        CHANNELS 3 Zrotation Xrotation Yrotation
                                        End Site
                                        {
                                            OFFSET  -2.582190   0.000000   0.000000
                                        }
                                    }
                                }
                            }
                            JOINT RightFinger1
                            {
                                OFFSET  -8.364480   0.000000   3.252850
                                CHANNELS 3 Zrotation Xrotation Yrotation
                                JOINT RightFinger11
                                {
                                    OFFSET  -4.646930   0.000000   0.000000
                                    CHANNELS 3 Zrotation Xrotation Yrotation
                                    JOINT RightFinger12
                                    {
                                        OFFSET  -2.323470   0.000000   0.000000
                                        CHANNELS 3 Zrotation Xrotation Yrotation
                                        End Site
                                        {
                                            OFFSET  -2.273050   0.000000   0.000000
                                        }
                                    }
                                }
                            }
                            JOINT RightFinger2
                            {
                                OFFSET  -8.364480   0.000000   1.078090
                                CHANNELS 3 Zrotation Xrotation Yrotation
                                JOINT RightFinger21
                                {
                                    OFFSET  -5.111620   0.000000   0.000000
                                    CHANNELS 3 Zrotation Xrotation Yrotation
                                    JOINT RightFinger22
                                    {
                                        OFFSET  -2.788160   0.000000   0.000000
                                        CHANNELS 3 Zrotation Xrotation Yrotation
                                        End Site
                                        {
                                            OFFSET  -2.727660   0.000000   0.000000
                                        }
                                    }
                                }
                            }
                            JOINT RightFinger3
                            {
                                OFFSET  -7.899780   0.000000  -1.078090
                                CHANNELS 3 Zrotation Xrotation Yrotation
                                JOINT RightFinger31
                                {
                                    OFFSET  -4.646930   0.000000   0.000000
                                    CHANNELS 3 Zrotation Xrotation Yrotation
                                    JOINT RightFinger32
                                    {
                                        OFFSET  -2.323470   0.000000   0.000000
                                        CHANNELS 3 Zrotation Xrotation Yrotation
                                        End Site
                                        {
                                            OFFSET  -2.273050   0.000000   0.000000
                                        }
                                    }
                                }
                            }
                            JOINT RightFinger4
                            {
                                OFFSET  -7.435090   0.000000  -3.252850
                                CHANNELS 3 Zrotation Xrotation Yrotation
                                JOINT RightFinger41
                                {
                                    OFFSET  -3.717550   0.000000   0.000000
                                    CHANNELS 3 Zrotation Xrotation Yrotation
                                    JOINT RightFinger42
                                    {
                                        OFFSET  -1.858760   0.000000   0.000000
                                        CHANNELS 3 Zrotation Xrotation Yrotation
                                        End Site
                                        {
                                            OFFSET  -1.818440   0.000000   0.000000
                                        }
                                    }
                                }
                            }
                        }
                    }
                }
            }
        }
    }
    JOINT LeftHip
    {
        OFFSET   9.783030   0.000000   0.000000
        CHANNELS 3 Zrotation Xrotation Yrotation
        JOINT LeftKnee
        {
            OFFSET   0.000063 -41.789100   0.000608
            CHANNELS 3 Zrotation Xrotation Yrotation
            JOINT LeftAnkle
            {
                OFFSET   0.000048 -41.133200  -0.000184
                CHANNELS 3 Zrotation Xrotation Yrotation
                JOINT LeftToe
                {
                    OFFSET   0.000000  -6.358960  14.674500
                    CHANNELS 3 Zrotation Xrotation Yrotation
                    End Site
                    {
                        OFFSET   0.000000   0.000000   3.913200
                    }
                }
            }
        }
    }
    JOINT RightHip
    {
        OFFSET  -9.783030   0.000000   0.000000
        CHANNELS 3 Zrotation Xrotation Yrotation
        JOINT RightKnee
        {
            OFFSET   0.000071 -41.789100   0.001239
            CHANNELS 3 Zrotation Xrotation Yrotation
            JOINT RightAnkle
            {
                OFFSET   0.000037 -41.133200  -0.000166
                CHANNELS 3 Zrotation Xrotation Yrotation
                JOINT RightToe
                {
                    OFFSET   0.000000  -6.358960  14.674500
                    CHANNELS 3 Zrotation Xrotation Yrotation
                    End Site
                    {
                        OFFSET   0.000000   0.000000   3.913200
                    }
                }
            }
        }
    }
}
MOTION
Frames: 6
Frame Time:   0.016667
  1.272130  89.450500  -1.237150  -2.580080  -5.774720   1.177430   1.269150   2.879180  -0.410765   2.563810   5.748430  -0.887043   0.321107   1.444700  -0.009099   0.528138   2.929790   8.961550   3.020880  -4.592960   1.813760 -48.814200 -23.660300 -104.139000   6.860770 -24.456400 -66.770700 -18.175100  -4.220780  -2.877020  38.436100  20.029600 -59.192800 -10.286000   0.004606   0.001081  -0.142983   0.001461   0.008585  -3.186200   0.092513  -1.667750  -2.607930   0.012405  -0.002783  -1.825560   0.001988  -0.000577   0.816737  -0.024101  -1.669850  -0.000305   0.005031  -0.000059   0.031205   0.003645  -0.002799  -2.501410   0.072669  -1.668790  -2.502390   0.003269  -0.001602  -1.666580   0.002133   0.000538  -8.498840   0.246736  -1.652230 -12.753500   0.005636   0.008565  -8.493840   0.003985   0.010783  -7.693200  -9.358060   6.131730  33.632400 -25.476700  84.372000 -37.130400 -16.927100  54.966300  16.820300 -22.592700  28.686500 -48.996300  37.202800  76.041300   3.644510   0.002000  -0.004175  -3.177750  -0.001427  -0.000549  -1.970150  -0.161608   4.682480   0.004456   0.011332  -0.004178   0.003139   0.006598  -0.003871  -2.560190   0.013022  -0.377095   0.000001   0.008808  -0.004204   0.000000   0.005715  -0.003084   3.459170  -0.022985  -0.376717   3.459210   0.012811  -0.009081   2.303840   0.003092  -0.001455   4.013830  -0.026651  -0.376484   6.020800   0.000902  -0.001829   4.009870   0.004141  -0.002509   5.259990   8.644840   3.449680   1.730120   0.079492  11.033100  -2.211460  -1.431990   1.446960  -0.000000   0.000000   0.000000   0.722537   5.900060  -4.869960   0.906871   3.233610 -11.178300   1.903440  -3.026750  -2.754190  -0.000000   0.000000   0.000000
  1.266290  89.448300  -1.220090  -2.585840  -5.754960   1.156870   1.264640   2.878700  -0.388398   2.553630   5.747920  -0.842002   0.333654   1.451210  -0.009219   0.548727   2.942590   8.910720   3.019120  -4.598780   1.793520 -48.765600 -23.728400 -104.114000   6.891810 -24.359600 -66.766900 -18.097600  -4.275250  -2.883810  38.435500  20.021700 -59.181800 -10.324400   0.004597   0.001081  -0.162178   0.001530   0.008585  -2.724900   0.075256  -1.585980  -2.230280   0.012390  -0.002844  -1.561200   0.001934  -0.000626   1.485700  -0.041260  -1.586950  -0.000254   0.005004  -0.000093   0.015603   0.003614  -0.002873  -2.130560   0.058853  -1.586720  -2.131330   0.003217  -0.001646  -1.419470   0.002096   0.000533  -8.301060   0.229152  -1.571290 -12.456200   0.005599   0.008598  -8.295870   0.003959   0.010836  -7.706350  -9.384410   6.114740  33.531900 -25.409300  84.348800 -37.113400 -16.938200  54.926800  16.534300 -22.672100  28.585000 -48.955400  37.182700  76.020400   3.742780   0.002098  -0.004159  -3.128620  -0.001382  -0.000550  -1.970300  -0.164013   4.730530   0.005036   0.011352  -0.004160   0.003535   0.006622  -0.003845  -2.529240   0.011177  -0.301650   0.000001   0.009016  -0.004182   0.000000   0.005692  -0.003039   3.436920  -0.018015  -0.301341   3.436940   0.012848  -0.009096   2.289010   0.003204  -0.001455   4.001700  -0.021322  -0.301158   6.002640   0.000904  -0.001756   3.997750   0.004096  -0.002472   5.260080   8.659010   3.448790   1.730130   0.040380  11.045100  -2.209480  -1.423310   1.459450   0.000000   0.000000  -0.000000   0.723624   5.870280  -4.886010   0.909946   3.244780 -11.157600   1.904220  -3.028070  -2.738960   0.000000   0.000000   0.000000
  1.261280  89.445000  -1.201490  -2.592330  -5.735950   1.143950   1.259520   2.877800  -0.367418   2.542330   5.746790  -0.799689   0.347360   1.457330  -0.009340   0.571230   2.954670   8.864860   3.017990  -4.601360   1.782500 -48.747100 -23.775200 -104.117000   6.910780 -24.285800 -66.764900 -18.058800  -4.329710  -2.891370  38.439900  20.019200 -59.174100 -10.362800   0.004594   0.001083  -0.181374   0.001600   0.008583  -2.337660   0.062157  -1.527270  -1.913280   0.012375  -0.002905  -1.339300   0.001879  -0.000673   2.099300  -0.056282  -1.527350  -0.000246   0.004978  -0.000131   0.000000   0.003584  -0.002947  -1.818120   0.048335  -1.527820  -1.818740   0.003167  -0.001691  -1.211290   0.002061   0.000529  -8.120230   0.215895  -1.513300 -12.184600   0.005563   0.008632  -8.114960   0.003932   0.010888  -7.718780  -9.406310   6.102140  33.448900 -25.357100  84.338500 -37.081400 -16.945100  54.884800  16.262700 -22.751600  28.501400 -48.915900  37.157900  76.002000   3.846640   0.002198  -0.004144  -3.076680  -0.001338  -0.000550  -1.970190  -0.164345   4.782860   0.005593   0.011372  -0.004143   0.003914   0.006646  -0.003820  -2.460680   0.009657  -0.227792   0.000001   0.009222  -0.004161   0.000000   0.005671  -0.002994   3.433610  -0.013713  -0.227542   3.433610   0.012885  -0.009111   2.286780   0.003318  -0.001455   4.000000  -0.015956  -0.227402   6.000050   0.000906  -0.001684   3.996020   0.004053  -0.002436   5.260670   8.673190   3.445890   1.730150   0.001270  11.056100  -2.207580  -1.414630   1.469120   0.000000   0.000000   0.000000   0.724835   5.849550  -4.901260   0.913565   3.255930 -11.139400   1.904650  -3.029190  -2.730000  -0.000000   0.000000   0.000000
  1.256590  89.440600  -1.182290  -2.597500  -5.716780   1.140990   1.252620   2.877360  -0.349305   2.527570   5.746140  -0.763040   0.366643   1.461030  -0.009449   0.602941   2.962920   8.824700   3.014860  -4.610770   1.774300 -48.745800 -23.805800 -104.138000   6.914240 -24.223400 -66.759500 -18.066600  -4.249230  -2.898640  38.465500  20.025500 -59.144100 -10.323900   0.004610   0.001093  -0.161952   0.001670   0.008580  -2.050620   0.052913  -1.502330  -1.678350   0.012359  -0.002966  -1.174840   0.001827  -0.000725   2.526870  -0.066578  -1.501650  -0.000268   0.004944  -0.000173   0.000565   0.003556  -0.003020  -1.590790   0.040977  -1.502730  -1.591320   0.003114  -0.001732  -1.059820   0.002030   0.000525  -7.927610   0.206518  -1.489030 -11.895400   0.005528   0.008664  -7.922370   0.003900   0.010938  -7.728730  -9.435230   6.093170  33.397300 -25.310000  84.344700 -37.058300 -16.946300  54.843900  16.039300 -22.826600  28.425100 -48.875500  37.163300  76.043800   3.941310   0.002277  -0.004135  -3.029350  -0.001317  -0.000551  -1.936930  -0.162640   4.816620   0.006124   0.011401  -0.004127   0.004286   0.006655  -0.003797  -2.369680   0.008749  -0.179309   0.000001   0.009422  -0.004140   0.000000   0.005658  -0.002949   3.457320  -0.012324  -0.179097   3.457310   0.012922  -0.009131   2.302580   0.003446  -0.001451   4.036760  -0.011152  -0.178977   6.055150   0.000906  -0.001617   4.032720   0.004015  -0.002397   5.264020   8.669790   3.440290   1.730490   0.001349  11.067300  -2.209250  -1.423720   1.472720  -0.000000   0.000000  -0.000000   0.725687   5.852780  -4.910770   0.919262   3.239670 -11.125700   1.904540  -3.029600  -2.730440  -0.000000   0.000000  -0.000000
  1.252650  89.435900  -1.162510  -2.602310  -5.697680   1.140530   1.245790   2.875880  -0.333269   2.513080   5.743780  -0.730534   0.385427   1.463330  -0.009558   0.633965   2.967730   8.786740   3.006830  -4.617180   1.764820 -48.737600 -23.829200 -104.158000   6.929660 -24.172800 -66.759500 -18.074000  -4.147580  -2.915410  38.493800  20.017400 -59.092300 -10.263600   0.004626   0.001105  -0.131839   0.001743   0.008576  -1.878550   0.049096  -1.498540  -1.537510   0.012343  -0.003028  -1.076250   0.001776  -0.000776   2.818900  -0.073809  -1.497500  -0.000289   0.004911  -0.000219   0.001543   0.003529  -0.003092  -1.435300   0.037524  -1.498880  -1.435800   0.003059  -0.001771  -0.956237   0.002000   0.000521  -7.768770   0.202652  -1.485560 -11.657100   0.005493   0.008694  -7.763630   0.003869   0.010986  -7.738210  -9.462930   6.084570  33.352400 -25.264500  84.355500 -37.051200 -16.949300  54.807400  15.868100 -22.887300  28.367600 -48.817300  37.178600  76.101700   4.021290   0.002356  -0.004126  -2.989350  -0.001296  -0.000551  -1.866620  -0.158524   4.850150   0.006625   0.011432  -0.004109   0.004640   0.006662  -0.003774  -2.259430   0.008113  -0.136734   0.000001   0.009619  -0.004120   0.000000   0.005646  -0.002904   3.502220  -0.011868  -0.136558   3.502210   0.012958  -0.009151   2.332490   0.003575  -0.001444   4.073500  -0.007308  -0.136454   6.110250   0.000904  -0.001552   4.069420   0.003983  -0.002357   5.269090   8.663410   3.433850   1.731270   0.001429  11.073400  -2.212960  -1.438820   1.473250  -0.000000   0.000000   0.000000   0.726297   5.856020  -4.917880   0.925454   3.223370 -11.115700   1.904230  -3.030570  -2.733510  -0.000000   0.000000   0.000000
  1.249770  89.431800  -1.142660  -2.605670  -5.678360   1.151640   1.240750   2.872370  -0.318067   2.502190   5.737330  -0.699813   0.400330   1.464410  -0.009676   0.658619   2.969290   8.738830   2.989610  -4.615700   1.740570 -48.736200 -23.837700 -104.178000   6.962530 -24.127700 -66.775400 -18.060400  -4.122800  -2.954320  38.491700  19.940500 -58.996000 -10.216900   0.004607   0.001111  -0.108492   0.001821   0.008574  -1.821950   0.049227  -1.510910  -1.491180   0.012332  -0.003090  -1.043820   0.001726  -0.000819   2.975430  -0.078456  -1.509730  -0.000263   0.004884  -0.000268   0.002412   0.003500  -0.003162  -1.350380   0.036955  -1.511270  -1.350860   0.003000  -0.001807  -0.899675   0.001968   0.000513  -7.685960   0.203065  -1.497990 -11.532900   0.005460   0.008721  -7.680900   0.003843   0.011034  -7.748920  -9.488140   6.070250  33.335800 -25.215500  84.379300 -37.078300 -16.960800  54.774100  15.777600 -22.914200  28.342500 -48.790100  37.186200  76.128000   4.071770   0.002452  -0.004108  -2.964100  -0.001254  -0.000553  -1.772080  -0.152179   4.909770   0.007094   0.011459  -0.004087   0.004963   0.006679  -0.003750  -2.133410   0.007497  -0.073646   0.000001   0.009815  -0.004102   0.000000   0.005626  -0.002861   3.549890  -0.011008  -0.073538   3.549900   0.012997  -0.009166   2.364250   0.003692  -0.001443   4.064380  -0.005070  -0.073473   6.096580   0.000901  -0.001488   4.060320   0.003961  -0.002314   5.276090   8.660220   3.428210   1.731830   0.001288  11.072300  -2.217040  -1.447990   1.469640   0.000000   0.000000  -0.000000   0.728418   5.835950  -4.924650   0.929588   3.231040 -11.109000   1.903350  -3.034870  -2.745680  -0.000000   0.000000  -0.000000
